{"title":"The.Edge.Of.Love.2008.DVDRiP.XViD.OPTIONAL.NORDIC-Zen_Bud","uid":5864339,"size":913474745,"categoryP":"video","categoryS":"movies","magnet":"?xt=urn:btih:be932c3f7dcc9cbe9435a75820deba9bcb5e20b8&amp;dn=The.Edge.Of.Love.2008.DVDRiP.XViD.OPTIONAL.NORDIC-Zen_Bud&amp;tr=udp%3A%2F%2Ftracker.openbittorrent.com%3A80&amp;tr=udp%3A%2F%2Fopen.demonii.com%3A1337&amp;tr=udp%3A%2F%2Ftracker.coppersurfer.tk%3A6969&amp;tr=udp%3A%2F%2Fexodus.desync.com%3A6969","seeders":2,"leechers":0,"uploader":"Zen_Bud","files":-1,"time":1286096937,"description":"\n****** The.Edge.Of.Love.2008.DVDRiP.XViD.OPTIONAL.NORDIC-Zen_Bud ******\n\nFormat                           : AVI\nFormat/Info                      : Audio Video Interleave\nFile size                        : 857 MiB\nDuration                         : 1h 46mn\nOverall bit rate                 : 1 129 Kbps\n\nVideo\n\nFormat                           : MPEG-4 Visual\nCodec ID/Hint                    : XviD\nDuration                         : 1h 46mn\nBit rate                         : 988 Kbps\nWidth                            : 720 pixels\nHeight                           : 576 pixels\nDisplay aspect ratio             : 16:9\nStream size                      : 750 MiB (88%)\nWriting library                  : XviD 1.1.2 (UTC 2006-11-01)\n\nAudio\n\nFormat                           : MPEG Audio\nCodec ID/Hint                    : MP3\nDuration                         : 1h 46mn\nBit rate                         : 128 Kbps\nChannel(s)                       : 2 channels\nSampling rate                    : 48.0 KHz\nStream size                      : 97.2 MiB (11%)\nLanguage                         : English\n\nText #1\nLanguage                         : Danish\n\nText #2\nLanguage                         : Swedish\n\nText #3\nLanguage                         : Norwegian\n\nText #4\nLanguage                         : Finnish","torrent":{"xt":"urn:btih:be932c3f7dcc9cbe9435a75820deba9bcb5e20b8","amp;dn":"The.Edge.Of.Love.2008.DVDRiP.XViD.OPTIONAL.NORDIC-Zen_Bud","amp;tr":["udp%3A%2F%2Ftracker.openbittorrent.com%3A80","udp%3A%2F%2Fopen.demonii.com%3A1337","udp%3A%2F%2Ftracker.coppersurfer.tk%3A6969","udp%3A%2F%2Fexodus.desync.com%3A6969"],"infoHash":"be932c3f7dcc9cbe9435a75820deba9bcb5e20b8","infoHashBuffer":{"type":"Buffer","data":[190,147,44,63,125,204,156,190,148,53,167,88,32,222,186,155,203,94,32,184]},"announce":[],"urlList":[]}}